#N canvas 1020 68 903 736 10;
#X declare -lib mrpeach;
#N canvas 0 0 450 300 (subpatch) 0;
#X array ChannelL 468621 float 2;
#X coords 0 1 468621 -1 200 140 1;
#X restore 206 350 graph;
#N canvas 0 0 450 300 (subpatch) 0;
#X array ChannelR 468621 float 2;
#X coords 0 1 468621 -1 200 140 1;
#X restore 205 519 graph;
#X msg -259 60 \; pd dsp \$1;
#X obj -256 14 tgl 15 0 empty empty empty 17 7 0 10 -262144 -1 -1 1
1;
#X obj -138 198 soundfiler;
#X floatatom -114 220 5 0 0 0 - - -;
#X obj -135 278 expr 44100 / $f1;
#X obj -157 342 phasor~;
#X floatatom -126 308 5 0 0 0 - - -;
#X obj -135 381 *~;
#X obj -122 251 s sampleSize;
#X obj -101 359 r sampleSize;
#X obj -209 486 *~;
#X obj -160 486 *~;
#X obj -209 522 dac~ 1 2;
#X obj -73 442 vsl 15 128 0 127 0 0 empty empty empty 0 -9 0 10 -262144
-1 -1 100 1;
#X msg -133 168 read -resize \$1 ChannelL ChannelR;
#X obj -213 424 tabread4~ ChannelL;
#X obj -198 452 tabread4~ ChannelR;
#X obj -10 386 snapshot~;
#X obj -10 364 metro 50;
#X obj -10 342 tgl 15 0 empty empty empty 17 7 0 10 -262144 -1 -1 0
1;
#X floatatom -11 411 5 0 0 0 - - -;
#X obj 26 433 r sampleSize;
#X obj -11 437 /;
#X floatatom -12 462 5 0 0 0 - - -;
#X obj -8 519 hsl 195 15 0 1 0 0 empty empty empty -2 -8 0 10 -262144
-1 -1 0 1;
#X obj 2 258 hsl 160 15 0 1 0 0 empty empty empty -2 -8 0 10 -262144
-1 -1 1558 1;
#X floatatom -3 280 5 0 0 0 - - -;
#X msg -205 316 0;
#X text -209 296 Pause;
#X text 7 500 Where You Are;
#X obj 187 269 hsl 160 15 0 1 0 0 empty empty empty -2 -8 0 10 -262144
-1 -1 1495 1;
#X floatatom 182 291 5 0 0 0 - - -;
#X obj -170 73 bng 15 250 50 0 empty empty empty 17 7 0 10 -262144
-1 -1;
#X obj -70 74 bng 15 250 50 0 empty empty empty 17 7 0 10 -262144 -1
-1;
#X obj -137 46 moses 1;
#X floatatom -38 67 5 0 0 0 - - -;
#X floatatom -134 74 5 0 0 0 - - -;
#X text -64 89 greater than or equal to 1;
#X text -167 94 less than 1;
#X text -86 577 Volume;
#X floatatom -139 22 5 0 0 0 - - -;
#X obj 432 -17 import mrpeach;
#X text 430 -40 Recieving Messages;
#X obj 431 67 unpackOSC;
#X obj 432 101 pipelist;
#X obj 432 145 routeOSC /typing;
#X obj 431 27 udpreceive 5005;
#X text -172 -45 Implement: if this was a 1 and its still 1 do nothing
if this was a 0 and its now a 1 bang;
#X msg -65 114 open japaneseVersion.wav;
#X msg -242 114 open englishVersion.wav;
#X text 178 217 Playback Speed Japanese;
#X text -6 206 Playback English;
#X msg 183 239 0.094;
#X msg -2 228 0.098;
#X obj -140 -6 change;
#X connect 3 0 2 0;
#X connect 4 0 5 0;
#X connect 4 0 6 0;
#X connect 5 0 10 0;
#X connect 6 0 7 0;
#X connect 6 0 8 0;
#X connect 7 0 9 0;
#X connect 9 0 17 0;
#X connect 9 0 18 0;
#X connect 9 0 19 0;
#X connect 11 0 9 1;
#X connect 12 0 14 0;
#X connect 13 0 14 1;
#X connect 15 0 12 1;
#X connect 15 0 13 1;
#X connect 16 0 4 0;
#X connect 17 0 12 0;
#X connect 18 0 13 0;
#X connect 19 0 22 0;
#X connect 20 0 19 0;
#X connect 21 0 20 0;
#X connect 22 0 24 0;
#X connect 23 0 24 1;
#X connect 24 0 25 0;
#X connect 25 0 26 0;
#X connect 27 0 28 0;
#X connect 28 0 7 0;
#X connect 29 0 7 0;
#X connect 32 0 33 0;
#X connect 33 0 7 0;
#X connect 34 0 51 0;
#X connect 35 0 50 0;
#X connect 36 0 34 0;
#X connect 36 0 38 0;
#X connect 36 1 35 0;
#X connect 36 1 37 0;
#X connect 42 0 36 0;
#X connect 45 0 46 0;
#X connect 45 1 46 1;
#X connect 46 0 47 0;
#X connect 47 0 56 0;
#X connect 48 0 45 0;
#X connect 50 0 16 0;
#X connect 50 0 54 0;
#X connect 51 0 16 0;
#X connect 51 0 55 0;
#X connect 54 0 32 0;
#X connect 55 0 27 0;
#X connect 56 0 42 0;
